<?xml version="1.0" standalone="no"?><!DOCTYPE svg PUBLIC "-//W3C//DTD SVG 1.1//EN" "http://www.w3.org/Graphics/SVG/1.1/DTD/svg11.dtd"><svg class="icon" width="200px" height="200.00px" viewBox="0 0 1024 1024" version="1.1" xmlns="http://www.w3.org/2000/svg"><path d="M934.4 902.4c0 25.6-6.4 51.2-25.6 64-12.8 19.2-38.4 32-64 32s-44.8-12.8-64-32c-12.8-19.2-25.6-38.4-25.6-64l19.2-294.4c0-19.2 6.4-38.4 19.2-51.2 0-6.4 6.4-6.4 6.4-6.4V390.4c-25.6-6.4-51.2-25.6-76.8-51.2-25.6-32-44.8-76.8-44.8-128s19.2-96 44.8-128c32-32 70.4-57.6 115.2-57.6s83.2 19.2 115.2 57.6c25.6 32 44.8 76.8 44.8 128s-19.2 96-44.8 128c-19.2 25.6-44.8 44.8-76.8 51.2v147.2c6.4 0 6.4 6.4 12.8 6.4 12.8 12.8 19.2 32 19.2 51.2l25.6 307.2zM505.6 364.8v179.2l6.4 6.4c12.8 12.8 19.2 32 19.2 51.2l19.2 294.4c0 25.6-6.4 51.2-25.6 64-12.8 19.2-38.4 32-64 32s-44.8-12.8-64-32c-12.8-19.2-25.6-38.4-25.6-64l19.2-294.4c0-19.2 6.4-38.4 19.2-51.2 0-6.4 6.4-6.4 12.8-6.4V364.8h-6.4c-19.2 0-32-6.4-44.8-19.2-19.2-12.8-25.6-32-25.6-44.8V83.2c0-12.8 12.8-19.2 25.6-19.2s25.6 6.4 25.6 19.2v211.2c0 6.4 0 12.8 6.4 12.8 0 0 6.4 6.4 12.8 6.4V83.2c-6.4-12.8 6.4-19.2 19.2-19.2 12.8 0 25.6 6.4 25.6 19.2V320h12.8V83.2c0-12.8 12.8-19.2 25.6-19.2s25.6 6.4 25.6 19.2V320c6.4 0 6.4 0 12.8-6.4s6.4-6.4 6.4-12.8V83.2c-6.4-12.8 6.4-19.2 19.2-19.2 12.8 0 25.6 6.4 25.6 19.2v211.2c0 19.2-6.4 32-19.2 44.8-12.8 19.2-32 25.6-51.2 25.6h-12.8z m-307.2 192c6.4 12.8 12.8 25.6 12.8 38.4v332.8c0 19.2-6.4 38.4-19.2 44.8-12.8 12.8-25.6 19.2-44.8 19.2h-57.6c-19.2 0-38.4-6.4-44.8-19.2-12.8-12.8-19.2-32-19.2-44.8v-6.4V224C25.6 166.4 102.4 38.4 102.4 38.4c0-12.8 12.8-12.8 25.6-6.4l6.4 6.4s96 121.6 96 224v262.4c0 6.4-6.4 12.8-12.8 19.2l-19.2 12.8zM64 531.2h96l19.2-19.2V262.4c0-57.6-38.4-128-64-166.4C96 128 64 192 64 224v307.2z m857.6-416c-19.2-25.6-44.8-38.4-76.8-38.4s-57.6 12.8-76.8 38.4c-19.2 25.6-32 57.6-32 102.4 0 38.4 12.8 76.8 32 102.4 19.2 25.6 44.8 38.4 76.8 38.4s57.6-12.8 76.8-38.4c25.6-32 38.4-70.4 38.4-108.8 0-38.4-12.8-70.4-38.4-96zM492.8 934.4c6.4-6.4 12.8-19.2 12.8-38.4l-19.2-288c0-6.4 0-19.2-6.4-19.2-6.4-12.8-6.4-12.8-12.8-12.8s-12.8 0-12.8 6.4c-6.4 6.4-6.4 12.8-6.4 19.2L428.8 896c0 12.8 6.4 25.6 12.8 38.4 6.4 6.4 19.2 12.8 25.6 12.8 12.8 0 19.2 0 25.6-12.8zM448 601.6z m422.4 332.8c6.4-6.4 12.8-19.2 12.8-38.4l-19.2-294.4c0-6.4 0-19.2-6.4-19.2 0-6.4-6.4-6.4-12.8-6.4s-6.4 0-12.8 6.4-6.4 12.8-6.4 19.2l-19.2 294.4c0 12.8 6.4 25.6 12.8 38.4 6.4 6.4 19.2 12.8 25.6 12.8 12.8 0 19.2 0 25.6-12.8zM134.4 608h-38.4v313.6h38.4V608z" fill="#8a979e" /></svg>