<?xml version="1.0" standalone="no"?><!DOCTYPE svg PUBLIC "-//W3C//DTD SVG 1.1//EN" "http://www.w3.org/Graphics/SVG/1.1/DTD/svg11.dtd"><svg class="icon" width="200px" height="200.00px" viewBox="0 0 1024 1024" version="1.1" xmlns="http://www.w3.org/2000/svg"><path d="M512 206.4c-56 0-101.6-45.6-101.6-101.6S456 4 512 4s101.6 45.6 101.6 101.6S568 206.4 512 206.4z m0-170.4c-38.4 0-69.6 31.2-69.6 69.6s31.2 69.6 69.6 69.6 69.6-31.2 69.6-69.6-31.2-69.6-69.6-69.6zM571.2 1020c-27.2 0-50.4-16.8-59.2-40-9.6 24-32.8 40-59.2 40-35.2 0-64-28.8-64-64V347.2c0-67.2 55.2-122.4 122.4-122.4h1.6c67.2 0 122.4 55.2 122.4 122.4v608.8c0 35.2-28 64-64 64z m-70.4-423.2h23.2c8.8 0 16 7.2 16 16v343.2c0 17.6 14.4 32 32 32s32-14.4 32-32V347.2c0-49.6-40.8-90.4-90.4-90.4H512c-49.6 0-90.4 40.8-90.4 90.4v608.8c0 17.6 14.4 32 32 32s32-14.4 32-32V612.8c-0.8-8.8 6.4-16 15.2-16z" fill="#8a979e" /><path d="M891.2 388.8h-272c-8.8 0-16-7.2-16-16v-24.8c0-16-4-31.2-12-44.8-2.4-4-2.4-8.8-0.8-13.6 1.6-4 4.8-8 9.6-9.6 6.4-2.4 12.8-3.2 19.2-3.2h271.2c31.2 0 56 24.8 56 56 0.8 31.2-24.8 56-55.2 56z m-256-32h255.2c13.6 0 24-10.4 24-24s-10.4-24-24-24H628.8c4 12.8 6.4 25.6 6.4 39.2v8.8zM404.8 388.8h-272c-31.2 0-56-24.8-56-56s24.8-56 56-56h271.2c6.4 0 12.8 1.6 19.2 3.2 4 1.6 8 4.8 9.6 9.6 1.6 4 1.6 9.6-0.8 13.6-8 13.6-12 28.8-12 44.8v24.8c0.8 8.8-6.4 16-15.2 16z m-272-80c-13.6 0-24 10.4-24 24s10.4 24 24 24h255.2v-8.8c0-13.6 2.4-26.4 6.4-39.2H132.8z" fill="#8a979e" /><path d="M100.8 428.8c-52.8 0-96-43.2-96-96s43.2-96 96-96 96 43.2 96 96-43.2 96-96 96z m0-160c-35.2 0-64 28.8-64 64s28.8 64 64 64 64-28.8 64-64-28.8-64-64-64zM923.2 428.8c-52.8 0-96-43.2-96-96s43.2-96 96-96 96 43.2 96 96-43.2 96-96 96z m0-160c-35.2 0-64 28.8-64 64s28.8 64 64 64 64-28.8 64-64-28.8-64-64-64z" fill="#8a979e" /><path d="M923.2 268.8c-8.8 0-16-7.2-16-16V64c0-8.8 7.2-16 16-16s16 7.2 16 16v188.8c0 8.8-7.2 16-16 16zM100.8 268.8c-8.8 0-16-7.2-16-16V64c0-8.8 7.2-16 16-16s16 7.2 16 16v188.8c0 8.8-7.2 16-16 16z" fill="#8a979e" /></svg>