<?xml version="1.0" standalone="no"?><!DOCTYPE svg PUBLIC "-//W3C//DTD SVG 1.1//EN" "http://www.w3.org/Graphics/SVG/1.1/DTD/svg11.dtd"><svg class="icon" width="200px" height="200.00px" viewBox="0 0 1024 1024" version="1.1" xmlns="http://www.w3.org/2000/svg"><path d="M821.6064 184.0128h-73.3696v-32.0512c0-16.9472-13.7728-30.72-30.72-30.72s-30.72 13.7728-30.72 30.72v32.0512H338.432v-32.0512c0-16.9472-13.7728-30.72-30.72-30.72s-30.72 13.7728-30.72 30.72v32.0512H202.8544c-73.4208 0-133.12 59.6992-133.12 133.12v452.096c0 73.4208 59.6992 133.12 133.12 133.12h618.752c73.4208 0 133.12-59.6992 133.12-133.12v-452.096c0-73.4208-59.7504-133.12-133.12-133.12z m71.68 585.1648c0 39.5264-32.1536 71.68-71.68 71.68H202.8544c-39.5264 0-71.68-32.1536-71.68-71.68v-452.096c0-39.5264 32.1536-71.68 71.68-71.68H276.992v39.8848c0 16.9472 13.7728 30.72 30.72 30.72s30.72-13.7728 30.72-30.72v-39.8848h348.3648v39.8848c0 16.9472 13.7728 30.72 30.72 30.72s30.72-13.7728 30.72-30.72v-39.8848h73.3696c39.5264 0 71.68 32.1536 71.68 71.68v452.096z" fill="#8a979e" /><path d="M464.6912 694.4256c-15.7184 0-31.4368-5.9392-43.3152-17.7152l-94.3104-93.6448a30.73024 30.73024 0 0 1-0.1536-43.4688 30.73024 30.73024 0 0 1 43.4688-0.1536l94.3616 93.6448 195.4304-189.8496a30.6688 30.6688 0 0 1 43.4176 0.6144 30.72 30.72 0 0 1-0.6144 43.4176l-195.328 189.8496a61.696 61.696 0 0 1-42.9568 17.3056z" fill="#8a979e" /></svg>