<?xml version="1.0" standalone="no"?><!DOCTYPE svg PUBLIC "-//W3C//DTD SVG 1.1//EN" "http://www.w3.org/Graphics/SVG/1.1/DTD/svg11.dtd"><svg class="icon" width="200px" height="200.00px" viewBox="0 0 1024 1024" version="1.1" xmlns="http://www.w3.org/2000/svg"><path d="M512 312.2m-198.3 0a198.3 198.3 0 1 0 396.6 0 198.3 198.3 0 1 0-396.6 0Z" fill="#8a979e" /><path d="M871.2 879.1c1.4 16.8-12.1 31-28.8 31H181.7c-16.8 0-30.2-14.3-28.8-31 13.5-165.8 134.6-300.4 291.9-330.8 5.4-1.1 11.1 1 14.7 5.2 0 0 39.9 46.7 48.1 56.7 0.9 1.1 1.2 2.7 0.6 4l-60.9 158.3c-1.1 2.7-0.6 5.8 1.3 8l61 86.8c1.3 1.7 3.8 1.7 5 0l61-86.8c1.9-2.2 2.4-5.3 1.3-8L516 614.2c-0.5-1.4-0.3-2.9 0.6-4 8.2-10 48.1-56.7 48.1-56.7 3.6-4.2 9.2-6.2 14.7-5.2 157.2 30.4 278.2 165 291.8 330.8z" fill="#8a979e" /></svg>