<?xml version="1.0" standalone="no"?><!DOCTYPE svg PUBLIC "-//W3C//DTD SVG 1.1//EN" "http://www.w3.org/Graphics/SVG/1.1/DTD/svg11.dtd"><svg class="icon" width="200px" height="200.00px" viewBox="0 0 1024 1024" version="1.1" xmlns="http://www.w3.org/2000/svg"><path d="M195.545498 122.88C133.573018 122.88 82.905498 173.54752 82.905498 235.52S133.573018 348.16 195.545498 348.16s112.64-50.66752 112.64-112.64S257.517978 122.88 195.545498 122.88z m0 40.96c39.8336 0 71.68 31.8464 71.68 71.68S235.379098 307.2 195.545498 307.2A71.3728 71.3728 0 0 1 123.865498 235.52C123.865498 195.6864 155.711898 163.84 195.545498 163.84z m392.97024 63.36512a73.05216 73.05216 0 0 0-26.25536 5.75488 20.48 20.48 0 0 0-0.63488 0.63488l-183.05024 85.11488-1.26976 0.65536-149.77024 37.76512a20.48 20.48 0 0 0-1.90464 0c-15.42144 5.12-44.032 8.23296-67.19488 25.6a20.48 20.48 0 0 0 0 0.6144c-52.98176 40.38656-57.18016 118.90688-16.01536 172.17536l184.32 235.52a20.48 20.48 0 0 0 0.63488 0c22.95808 28.0576 55.33696 44.93312 88.33024 48.64H21.465498a20.48 20.48 0 0 0-1.92512 0A20.50048 20.50048 0 0 0 21.465498 880.64h983.04a20.48 20.48 0 1 0 0-40.96H444.500378a113.64352 113.64352 0 0 0 54.41536-22.40512 20.48 20.48 0 0 0 1.26976-1.90464 20.48 20.48 0 0 0 0.63488 0l1.29024-0.65536a20.48 20.48 0 0 0 4.46464-3.19488l168.96-159.35488 1.29024-1.29024 1.92512-1.26976 214.38464-140.8c33.05472-22.03648 37.4784-66.29376 15.36-94.72-0.16384-0.26624-0.45056-0.38912-0.6144-0.65536A59.96544 59.96544 0 0 0 864.975258 389.12c-16.0768-1.45408-31.98976 3.29728-46.08 10.87488-0.2048 0.1024-0.47104-0.1024-0.65536 0L601.315738 516.5056a20.48 20.48 0 0 0-1.92512 1.26976l-115.2 85.13536L369.625498 456.2944l48.00512-12.8c1.7408-0.57344 4.79232-1.08544 5.12-1.26976 0.12288-0.04096 0.73728-0.04096 0.63488 0a20.48 20.48 0 0 0 5.75488-1.92512l188.80512-85.77024a20.48 20.48 0 0 0 1.29024-0.6144c30.3104-16.54784 45.32224-54.1696 31.3344-87.69536a66.64192 66.64192 0 0 0-37.10976-34.57024 67.03104 67.03104 0 0 0-24.94464-4.46464z m1.26976 41.59488a25.8048 25.8048 0 0 1 9.60512 1.29024c6.10304 2.2528 10.58816 6.5536 13.43488 12.77952 6.0416 15.27808 1.06496 27.29984-13.43488 35.2256l-186.24512 85.0944h-0.63488c-1.14688 0.34816-3.1744 0.38912-3.85024 0.65536a20.48 20.48 0 0 0-1.26976 0l-78.09024 20.48a20.48 20.48 0 0 0-10.87488 32.62464l145.92 186.24512a20.48 20.48 0 0 0 28.16 3.85024l131.19488-96.01024 214.40512-115.2c8.2944-4.5056 16.7936-6.32832 23.04-5.75488 6.2464 0.57344 10.32192 2.31424 14.09024 7.68a20.48 20.48 0 0 0 0.6144 1.29024c10.0352 12.53376 10.09664 24.63744-5.7344 35.18464l-216.96512 143.36a20.48 20.48 0 0 0-2.56 2.56l-170.25024 160.01024h-0.63488a20.48 20.48 0 0 0-1.29024 1.26976 20.48 20.48 0 0 0-2.56 1.92512 20.48 20.48 0 0 0-1.90464 0.63488v0.65536l-0.65536 0.6144c-33.52576 24.92416-83.5584 16.896-113.90976-19.82464l-184.32-235.52c-28.34432-36.67968-24.35072-88.63744 8.31488-113.93024 9.29792-6.9632 32.8704-12.41088 53.76-19.18976l1.92512-0.63488 151.67488-38.4a20.48 20.48 0 0 0 3.85024-1.29024l183.66464-85.74976c0.24576-0.1024 0.4096 0.08192 0.65536 0 3.6864-1.45408 7.41376-1.8432 10.87488-1.92512z" fill="#8a979e" /></svg>