<?xml version="1.0" standalone="no"?><!DOCTYPE svg PUBLIC "-//W3C//DTD SVG 1.1//EN" "http://www.w3.org/Graphics/SVG/1.1/DTD/svg11.dtd"><svg class="icon" width="200px" height="200.00px" viewBox="0 0 1024 1024" version="1.1" xmlns="http://www.w3.org/2000/svg"><path d="M853.333333 74.666667h-170.666666c0-23.466667-19.2-42.666667-42.666667-42.666667H384c-23.466667 0-42.666667 19.2-42.666667 42.666667H170.666667c-36.266667 0-64 27.733333-64 64v789.333333c0 36.266667 27.733333 64 64 64h682.666666c36.266667 0 64-27.733333 64-64v-789.333333c0-36.266667-27.733333-64-64-64z m-149.333333 533.333333c12.8 0 21.333333 8.533333 21.333333 21.333333s-8.533333 21.333333-21.333333 21.333334h-170.666667v170.666666c0 12.8-8.533333 21.333333-21.333333 21.333334s-21.333333-8.533333-21.333333-21.333334v-170.666666h-170.666667c-12.8 0-21.333333-8.533333-21.333333-21.333334s8.533333-21.333333 21.333333-21.333333h170.666667v-128h-170.666667c-12.8 0-21.333333-8.533333-21.333333-21.333333s8.533333-21.333333 21.333333-21.333334h119.466667l-100.266667-100.266666c-8.533333-8.533333-8.533333-21.333333 0-29.866667 8.533333-8.533333 21.333333-8.533333 29.866667 0l130.133333 130.133333h25.6l130.133333-130.133333c8.533333-8.533333 21.333333-8.533333 29.866667 0 8.533333 8.533333 8.533333 21.333333 0 29.866667l-100.266667 100.266666H704c12.8 0 21.333333 8.533333 21.333333 21.333334s-8.533333 21.333333-21.333333 21.333333h-170.666667v128h170.666667z" fill="#8a979e" /></svg>