<?xml version="1.0" standalone="no"?><!DOCTYPE svg PUBLIC "-//W3C//DTD SVG 1.1//EN" "http://www.w3.org/Graphics/SVG/1.1/DTD/svg11.dtd"><svg class="icon" width="200px" height="161.13px" viewBox="0 0 1271 1024" version="1.1" xmlns="http://www.w3.org/2000/svg"><path d="M1193.245403 987.154423L112.098777 1024c-61.65432 0-112.098763-52.943694-112.098763-117.611817 0-64.704876 50.426066-117.611817 112.098763-117.611817l1081.146626 36.753693c42.909936 1.323133 76.980609 37.672535 76.98061 80.858124 0 43.093705-34.070673 79.443107-76.98061 80.76624z" fill="#8a979e" /><path d="M313.086346 821.487153l64.484354-594.031559a58.916169 58.916169 0 0 0-42.101355-72.037238 59.798258 59.798258 0 0 0-72.919327 41.586803L95.963906 811.288003" fill="#8a979e" /><path d="M490.569928 196.086317a91.884232 91.884232 0 0 1-23.522363-3.068933L83.633042 91.503684A11.761182 11.761182 0 1 1 89.642271 68.771525l383.414522 101.495323c36.055373 9.55596 73.231733-11.614167 82.879578-47.154988l30.817971-113.660795a11.761182 11.761182 0 1 1 22.640275 6.17462l-30.817972 113.642418a91.204289 91.204289 0 0 1-88.006717 66.818214z" fill="#8a979e" /><path d="M79.406367 906.351429a39.693988 39.21619 0 1 0 79.387977 0 39.693988 39.21619 0 1 0-79.387977 0Z" fill="#FFFFFF" /></svg>