<?xml version="1.0" standalone="no"?><!DOCTYPE svg PUBLIC "-//W3C//DTD SVG 1.1//EN" "http://www.w3.org/Graphics/SVG/1.1/DTD/svg11.dtd"><svg class="icon" width="200px" height="191.40px" viewBox="0 0 1070 1024" version="1.1" xmlns="http://www.w3.org/2000/svg"><path d="M4.654545 954.181818v-884.363636a41.890909 41.890909 0 0 1 83.781819 0v842.472727h912.290909a41.890909 41.890909 0 1 1 0 83.781818H46.545455a41.890909 41.890909 0 0 1-41.89091-41.890909z m279.45891-512a41.890909 41.890909 0 1 1 83.781818 0V791.272727a41.890909 41.890909 0 1 1-83.781818 0V442.181818z m279.412363-139.636363a41.890909 41.890909 0 1 1 83.781818 0V791.272727a41.890909 41.890909 0 0 1-83.781818 0V302.545455z m279.458909-186.181819a41.890909 41.890909 0 1 1 83.781818 0V791.272727a41.890909 41.890909 0 1 1-83.781818 0V116.363636z" fill="#8a979e" /></svg>