<?xml version="1.0" standalone="no"?><!DOCTYPE svg PUBLIC "-//W3C//DTD SVG 1.1//EN" "http://www.w3.org/Graphics/SVG/1.1/DTD/svg11.dtd"><svg class="icon" width="200px" height="200.00px" viewBox="0 0 1024 1024" version="1.1" xmlns="http://www.w3.org/2000/svg"><path d="M852.34 396.51c-93.64 0-170.26 76.61-170.26 170.25v68.1l-171.32 98.96-169.19-97.89v-64.91c0-83-57.46-156.42-138.34-171.32C95.77 379.49 1.06 462.49 1.06 566.76v383.08c0 23.41 19.15 42.56 42.56 42.56h255.38c23.41 0 42.57-19.15 42.57-42.56V733.83l146.85 85.13c1.06 0 1.06 1.07 2.12 1.07 6.38 4.26 13.83 5.33 21.28 5.33 7.45 0 13.83-2.13 21.28-5.33l148.97-87.26v217.08c0 23.41 19.16 42.56 42.57 42.56h255.38c23.41 0 42.56-19.15 42.56-42.56V566.76c0.01-93.64-76.6-170.25-170.24-170.25zM276.47 930H67.47V566c0-50.05 47.02-91 104.5-91S276.47 515.95 276.47 566v364z m684 2H745.47V566.4c0-50.27 48.37-91.4 107.5-91.4S960.47 516.13 960.47 566.4V932zM853.4 376.39c93.64 0 170.25-76.62 170.25-170.26 0-93.64-76.61-170.25-170.25-170.25s-170.26 76.61-170.26 170.25 76.62 170.26 170.26 170.26z m-0.43-277.76c59.12 0 107.5 48.37 107.5 107.5s-48.37 107.51-107.5 107.51c-59.12 0-107.5-48.38-107.5-107.51s48.38-107.5 107.5-107.5zM170.25 376.39c93.64 0 170.26-76.62 170.26-170.26 0-93.64-75.55-170.25-170.26-170.25C76.61 35.88 0 112.49 0 206.13s76.61 170.26 170.25 170.26z m1.71-274.76c57.48 0 104.51 47.02 104.51 104.49 0 57.48-47.03 104.51-104.51 104.51C114.49 310.63 67.47 263.6 67.47 206.13c0-57.48 47.02-104.5 104.49-104.5z" fill="#8a979e" /></svg>