<?xml version="1.0" standalone="no"?><!DOCTYPE svg PUBLIC "-//W3C//DTD SVG 1.1//EN" "http://www.w3.org/Graphics/SVG/1.1/DTD/svg11.dtd"><svg class="icon" width="200px" height="200.00px" viewBox="0 0 1024 1024" version="1.1" xmlns="http://www.w3.org/2000/svg"><path d="M1024 230.4a230.4 230.4 0 0 0-460.8 0V460.8h230.4A230.4 230.4 0 0 0 1024 230.4z m-358.4 0A128 128 0 1 1 793.6 358.4H665.6zM793.6 563.2H563.2v230.4a230.4 230.4 0 1 0 230.4-230.4z m0 358.4a128 128 0 0 1-128-128V665.6h128a128 128 0 0 1 0 256zM230.4 0a230.4 230.4 0 0 0 0 460.8H460.8V230.4A230.4 230.4 0 0 0 230.4 0zM358.4 358.4H230.4A128 128 0 1 1 358.4 230.4zM0 793.6a230.4 230.4 0 0 0 460.8 0V563.2H230.4A230.4 230.4 0 0 0 0 793.6z m358.4 0A128 128 0 1 1 230.4 665.6H358.4z" fill="#8a979e" /></svg>